ffmpeg version 6.1.1-3ubuntu5 Copyright (c) 2000-2023 the FFmpeg developers
  built with gcc 13 (Ubuntu 13.2.0-23ubuntu3)
  configuration: --prefix=/usr --extra-version=3ubuntu5 --toolchain=hardened --libdir=/usr/lib/x86_64-linux-gnu --incdir=/usr/include/x86_64-linux-gnu --arch=amd64 --enable-gpl --disable-stripping --disable-omx --enable-gnutls --enable-libaom --enable-libass --enable-libbs2b --enable-libcaca --enable-libcdio --enable-libcodec2 --enable-libdav1d --enable-libflite --enable-libfontconfig --enable-libfreetype --enable-libfribidi --enable-libglslang --enable-libgme --enable-libgsm --enable-libharfbuzz --enable-libmp3lame --enable-libmysofa --enable-libopenjpeg --enable-libopenmpt --enable-libopus --enable-librubberband --enable-libshine --enable-libsnappy --enable-libsoxr --enable-libspeex --enable-libtheora --enable-libtwolame --enable-libvidstab --enable-libvorbis --enable-libvpx --enable-libwebp --enable-libx265 --enable-libxml2 --enable-libxvid --enable-libzimg --enable-openal --enable-opencl --enable-opengl --disable-sndio --enable-libvpl --disable-libmfx --enable-libdc1394 --enable-libdrm --enable-libiec61883 --enable-chromaprint --enable-frei0r --enable-ladspa --enable-libbluray --enable-libjack --enable-libpulse --enable-librabbitmq --enable-librist --enable-libsrt --enable-libssh --enable-libsvtav1 --enable-libx264 --enable-libzmq --enable-libzvbi --enable-lv2 --enable-sdl2 --enable-libplacebo --enable-librav1e --enable-pocketsphinx --enable-librsvg --enable-libjxl --enable-shared
  libavutil      58. 29.100 / 58. 29.100
  libavcodec     60. 31.102 / 60. 31.102
  libavformat    60. 16.100 / 60. 16.100
  libavdevice    60.  3.100 / 60.  3.100
  libavfilter     9. 12.100 /  9. 12.100
  libswscale      7.  5.100 /  7.  5.100
  libswresample   4. 12.100 /  4. 12.100
  libpostproc    57.  3.100 / 57.  3.100
[x11grab @ 0x5643634506c0] Stream #0: not enough frames to estimate rate; consider increasing probesize
Input #0, x11grab, from ':99.0':
  Duration: N/A, start: 1781507027.796735, bitrate: 884736 kb/s
  Stream #0:0: Video: rawvideo (BGR[0] / 0x524742), bgr0, 1280x720, 884736 kb/s, 30 fps, 1000k tbr, 1000k tbn
[aist#1:0/pcm_s16le @ 0x564363460dc0] Guessed Channel Layout: stereo
Input #1, pulse, from 'psynet_rec.monitor':
  Duration: N/A, start: 1781507029.115041, bitrate: 1536 kb/s
  Stream #1:0: Audio: pcm_s16le, 48000 Hz, 2 channels, s16, 1536 kb/s
Stream mapping:
  Stream #0:0 -> #0:0 (rawvideo (native) -> h264 (libx264))
  Stream #1:0 -> #0:1 (pcm_s16le (native) -> aac (native))
Press [q] to stop, [?] for help
[libx264 @ 0x564363462200] using cpu capabilities: MMX2 SSE2Fast SSSE3 SSE4.2 AVX FMA3 BMI2 AVX2 AVX512
[libx264 @ 0x564363462200] profile Constrained Baseline, level 3.1, 4:2:0, 8-bit
[libx264 @ 0x564363462200] 264 - core 164 r3108 31e19f9 - H.264/MPEG-4 AVC codec - Copyleft 2003-2023 - http://www.videolan.org/x264.html - options: cabac=0 ref=1 deblock=0:0:0 analyse=0:0 me=dia subme=0 psy=1 psy_rd=1.00:0.00 mixed_ref=0 me_range=16 chroma_me=1 trellis=0 8x8dct=0 cqm=0 deadzone=21,11 fast_pskip=1 chroma_qp_offset=0 threads=4 lookahead_threads=4 sliced_threads=1 slices=4 nr=0 decimate=1 interlaced=0 bluray_compat=0 constrained_intra=0 bframes=0 weightp=0 keyint=250 keyint_min=15 scenecut=0 intra_refresh=0 rc=crf mbtree=0 crf=23.0 qcomp=0.60 qpmin=0 qpmax=69 qpstep=4 ip_ratio=1.40 aq=0
Output #0, mp4, to '/workspace/challenges/implement-tapping-rhythm-experiment/attempts/2026-06-15-06-42/evidence/participant_raw.mp4':
  Metadata:
    encoder         : Lavf60.16.100
  Stream #0:0: Video: h264 (avc1 / 0x31637661), yuv420p(tv, progressive), 1280x720, q=2-31, 15 fps, 15360 tbn
    Metadata:
      encoder         : Lavc60.31.102 libx264
    Side data:
      cpb: bitrate max/min/avg: 0/0/0 buffer size: 0 vbv_delay: N/A
  Stream #0:1: Audio: aac (LC) (mp4a / 0x6134706D), 48000 Hz, stereo, fltp, 128 kb/s
    Metadata:
      encoder         : Lavc60.31.102 aac
frame=    0 fps=0.0 q=0.0 size=       0kB time=-00:00:00.02 bitrate=  -0.0kbits/s speed=N/A    frame=   15 fps=0.0 q=11.0 size=       0kB time=00:00:01.01 bitrate=   0.4kbits/s speed=1.87x    frame=   26 fps= 25 q=11.0 size=       0kB time=00:00:01.75 bitrate=   0.2kbits/s speed=1.69x    frame=   34 fps= 22 q=11.0 size=       0kB time=00:00:02.25 bitrate=   0.2kbits/s speed=1.46x    frame=   40 fps= 19 q=11.0 size=       0kB time=00:00:02.72 bitrate=   0.1kbits/s speed=1.33x    frame=   48 fps= 19 q=11.0 size=       0kB time=00:00:03.17 bitrate=   0.1kbits/s speed=1.24x    frame=   55 fps= 18 q=20.0 size=       0kB time=00:00:03.68 bitrate=   0.1kbits/s speed= 1.2x    frame=   64 fps= 18 q=19.0 size=       0kB time=00:00:04.20 bitrate=   0.1kbits/s speed=1.18x    frame=   71 fps= 17 q=15.0 size=       0kB time=00:00:04.71 bitrate=   0.1kbits/s speed=1.16x    frame=   78 fps= 17 q=11.0 size=       0kB time=00:00:05.22 bitrate=   0.1kbits/s speed=1.14x    frame=   85 fps= 17 q=11.0 size=       0kB time=00:00:05.71 bitrate=   0.1kbits/s speed=1.12x    frame=   94 fps= 17 q=13.0 size=     256kB time=00:00:06.20 bitrate= 338.3kbits/s speed=1.11x    frame=  101 fps= 17 q=11.0 size=     256kB time=00:00:06.71 bitrate= 312.2kbits/s speed= 1.1x    frame=  108 fps= 16 q=11.0 size=     256kB time=00:00:07.22 bitrate= 290.1kbits/s speed=1.09x    frame=  117 fps= 16 q=11.0 size=     256kB time=00:00:07.73 bitrate= 271.2kbits/s speed=1.09x    frame=  124 fps= 16 q=11.0 size=     256kB time=00:00:08.23 bitrate= 254.8kbits/s speed=1.08x    frame=  132 fps= 16 q=11.0 size=     256kB time=00:00:08.73 bitrate= 240.2kbits/s speed=1.08x    frame=  139 fps= 16 q=11.0 size=     256kB time=00:00:09.25 bitrate= 226.6kbits/s speed=1.07x    frame=  146 fps= 16 q=15.0 size=     256kB time=00:00:09.76 bitrate= 214.7kbits/s speed=1.07x    frame=  154 fps= 16 q=13.0 size=     256kB time=00:00:10.26 bitrate= 204.3kbits/s speed=1.07x    frame=  162 fps= 16 q=11.0 size=     256kB time=00:00:10.79 bitrate= 194.4kbits/s speed=1.06x    frame=  169 fps= 16 q=11.0 size=     256kB time=00:00:11.26 bitrate= 186.3kbits/s speed=1.06x    frame=  176 fps= 16 q=11.0 size=     256kB time=00:00:11.77 bitrate= 178.2kbits/s speed=1.06x    frame=  185 fps= 16 q=11.0 size=     256kB time=00:00:12.26 bitrate= 171.0kbits/s speed=1.05x    frame=  192 fps= 16 q=11.0 size=     256kB time=00:00:12.77 bitrate= 164.2kbits/s speed=1.05x    frame=  199 fps= 16 q=11.0 size=     512kB time=00:00:13.28 bitrate= 315.7kbits/s speed=1.05x    frame=  208 fps= 16 q=11.0 size=     512kB time=00:00:13.80 bitrate= 304.0kbits/s speed=1.05x    frame=  215 fps= 16 q=11.0 size=     512kB time=00:00:14.31 bitrate= 293.1kbits/s speed=1.05x    frame=  222 fps= 16 q=19.0 size=     512kB time=00:00:14.82 bitrate= 283.0kbits/s speed=1.04x    frame=  231 fps= 16 q=11.0 size=     512kB time=00:00:15.33 bitrate= 273.5kbits/s speed=1.04x    frame=  238 fps= 16 q=12.0 size=     512kB time=00:00:15.84 bitrate= 264.7kbits/s speed=1.04x    frame=  245 fps= 16 q=11.0 size=     512kB time=00:00:16.35 bitrate= 256.4kbits/s speed=1.04x    frame=  252 fps= 16 q=18.0 size=     512kB time=00:00:16.82 bitrate= 249.3kbits/s speed=1.04x    frame=  261 fps= 16 q=11.0 size=     512kB time=00:00:17.33 bitrate= 242.0kbits/s speed=1.04x    frame=  268 fps= 16 q=11.0 size=     512kB time=00:00:17.83 bitrate= 235.2kbits/s speed=1.04x    frame=  276 fps= 16 q=11.0 size=     512kB time=00:00:18.33 bitrate= 228.8kbits/s speed=1.03x    frame=  284 fps= 16 q=11.0 size=     512kB time=00:00:18.86 bitrate= 222.3kbits/s speed=1.03x    frame=  290 fps= 15 q=13.0 size=     512kB time=00:00:19.36 bitrate= 216.6kbits/s speed=1.03x    frame=  299 fps= 16 q=11.0 size=     512kB time=00:00:19.86 bitrate= 211.1kbits/s speed=1.03x    frame=  306 fps= 15 q=11.0 size=     512kB time=00:00:20.39 bitrate= 205.7kbits/s speed=1.03x    frame=  313 fps= 15 q=11.0 size=     768kB time=00:00:20.86 bitrate= 301.6kbits/s speed=1.03x    frame=  320 fps= 15 q=11.0 size=     768kB time=00:00:21.37 bitrate= 294.4kbits/s speed=1.03x    frame=  329 fps= 15 q=11.0 size=     768kB time=00:00:21.86 bitrate= 287.7kbits/s speed=1.03x    frame=  336 fps= 15 q=11.0 size=     768kB time=00:00:22.39 bitrate= 280.9kbits/s speed=1.03x    frame=  343 fps= 15 q=11.0 size=     768kB time=00:00:22.90 bitrate= 274.7kbits/s speed=1.03x    frame=  352 fps= 15 q=11.0 size=     768kB time=00:00:23.44 bitrate= 268.4kbits/s speed=1.03x    frame=  360 fps= 15 q=13.0 size=     768kB time=00:00:23.93 bitrate= 262.9kbits/s speed=1.03x    frame=  367 fps= 15 q=14.0 size=     768kB time=00:00:24.44 bitrate= 257.4kbits/s speed=1.03x    frame=  375 fps= 15 q=11.0 size=     768kB time=00:00:24.93 bitrate= 252.3kbits/s speed=1.03x    [out#0/mp4 @ 0x564363460a40] video:836kB audio:44kB subtitle:0kB other streams:0kB global headers:0kB muxing overhead: 1.942505%
frame=  381 fps= 15 q=11.0 Lsize=     897kB time=00:00:25.40 bitrate= 289.3kbits/s speed=1.03x    
[libx264 @ 0x564363462200] frame I:2     Avg QP:14.00  size: 27900
[libx264 @ 0x564363462200] frame P:379   Avg QP:11.93  size:  2110
[libx264 @ 0x564363462200] mb I  I16..4: 100.0%  0.0%  0.0%
[libx264 @ 0x564363462200] mb P  I16..4:  2.4%  0.0%  0.0%  P16..4:  4.3%  0.0%  0.0%  0.0%  0.0%    skip:93.3%
[libx264 @ 0x564363462200] coded y,uvDC,uvAC intra: 5.9% 9.7% 6.9% inter: 1.3% 2.9% 0.7%
[libx264 @ 0x564363462200] i16 v,h,dc,p: 79% 15%  6%  0%
[libx264 @ 0x564363462200] i8c dc,h,v,p: 80% 14%  6%  0%
[libx264 @ 0x564363462200] kb/s:269.49
[aac @ 0x564363467c80] Qavg: 62261.562
Exiting normally, received signal 2.
